<svg width="46" height="45" fill="none" xmlns="http://www.w3.org/2000/svg"><g clip-path="url(#clip0_918_20014)" fill="#22232C"><path d="M7.285 5.972c-.492.263-.518.427-.589 2.988-.061 2.322-.061 2.33.132 2.54a.69.69 0 00.967.046c.15-.148.176-.272.176-.955 0-.435.026-1.429.061-2.197l.053-1.413h1.099L9.228 8.2c.052 1.358.158 1.832.641 2.701.879 1.584 2.461 2.749 4.395 3.238.553.132.923.17 1.793.17 1.31.008 1.89-.108 3.032-.605 1.397-.613 2.46-1.553 3.164-2.81.457-.816.66-1.607.72-2.85l.053-1.063h1.011l.062.714c.035.396.044 1.995.026 3.556-.035 2.5-.061 2.942-.237 3.765-.229 1.087-1.495 6.257-1.556 6.343-.026.038-2.848.062-6.275.062-5.854 0-6.232-.008-6.276-.14-.096-.287-1.283-5.147-1.45-5.954a16.828 16.828 0 01-.228-1.36c-.036-.279-.097-.597-.15-.713-.176-.42-.888-.45-1.134-.055-.22.373.044 1.801 1.16 6.312l.616 2.469-.308.559c-1.854 3.37-4.183 11.544-5.027 17.654l-.15 1.102.194.186c.184.18.255.187 1.793.226 2.496.062 3.788.349 8.41 1.878 2.866.948 4.281 1.351 5.643 1.623 2.32.458 4.166.474 6.135.039 1.362-.303 3.19-1.11 3.815-1.693l.263-.24-.175-1.468-.168-1.467.396-.054c.8-.109 1.01-.288 1.459-1.242.844-1.77 2.153-3.424 3.806-4.79.887-.738 2.109-1.444 2.223-1.29 0 .016.035 1.507.062 3.324.053 3.066.061 3.315.22 3.516.29.373.615.482 1.546.482 1.02 0 1.336-.124 1.591-.606.15-.295.167-.535.167-2.616 0-1.677.035-2.399.123-2.686.062-.218.387-.909.703-1.545.756-1.46.932-2.065.932-3.137 0-2.453-.967-4.471-2.443-5.108-.422-.178-.536-.194-1.23-.163-1.68.093-2.928.792-4.088 2.314-.246.318-.949 1.475-1.564 2.562-1.266 2.243-2.224 3.578-3.147 4.401-1.054.932-1.907 1.173-2.69.769-.368-.194-.632-.49-1.019-1.133a1.89 1.89 0 00-.518-.528c-.378-.233-.826-.202-1.934.1-3.111.87-5.071 2.578-5.721 4.97-.343 1.28-.22 1.979.386 2.266.255.124.677.14 4.825.163l4.553.023.044.171c.026.093.097.645.167 1.219.106.924.106 1.064-.017 1.18-.22.233-1.793.9-2.576 1.102-1.608.404-3.489.45-5.326.125-1.485-.264-2.9-.66-5.959-1.67-4.473-1.474-6.117-1.863-8.28-1.956-.64-.023-1.168-.054-1.168-.07 0-.108.404-2.484.58-3.408.993-5.217 2.795-11.086 4.254-13.842l.343-.637h1.494c.844 0 1.503.031 1.503.07 0 .039-.097.621-.211 1.304a89.971 89.971 0 00-.37 2.29c-.131.994-.131 1.088 0 1.266.256.342.818.35 1.055.016.07-.093.229-.885.36-1.763.124-.877.3-1.94.379-2.367l.15-.777h4.218l.15.738c.078.403.254 1.49.386 2.406.22 1.452.272 1.693.448 1.84.255.233.598.225.88-.023.21-.186.219-.233.166-.714-.053-.482-.5-3.315-.633-3.998l-.061-.288h2.9l.334.637c.87 1.685 1.784 4.184 2.734 7.476.492 1.724.597 1.902 1.063 1.902.255 0 .642-.326.642-.543 0-.094-.141-.66-.317-1.266-.975-3.439-2.127-6.575-3.067-8.314l-.334-.622.228-.931c.123-.52.449-1.832.712-2.927.888-3.587.853-3.385.906-6.746.017-1.646 0-3.416-.044-3.944-.07-.932-.088-.963-.36-1.204l-.273-.248-1.09-.023c-1.837-.047-1.96.07-2.021 1.964-.036 1.056-.07 1.335-.264 1.863-.554 1.553-1.846 2.733-3.586 3.284-.563.179-.774.202-1.74.202-.967 0-1.178-.023-1.74-.202-1.706-.543-3.007-1.708-3.551-3.167-.15-.404-.194-.784-.238-1.902-.061-1.514-.105-1.654-.562-1.902-.237-.132-.448-.156-1.336-.156-.905 0-1.099.024-1.345.156zm32.16 19.82c.896.527 1.546 2.352 1.467 4.13-.044.97-.114 1.172-.861 2.608-.844 1.607-.818 1.49-.87 4.224l-.053 2.406h-.791l-.053-3.066c-.053-3.191-.096-3.572-.466-4.076-.386-.52-1.292-.373-2.645.42-.774.45-2.654 2.087-3.393 2.957-.975 1.149-1.898 2.624-2.303 3.664-.052.132-.377.14-5.247.14h-5.185v-.295c0-.466.237-1.165.633-1.879.29-.535.5-.784 1.125-1.335.677-.59.887-.722 1.766-1.102.554-.233 1.284-.497 1.635-.583l.633-.147.281.435c.94 1.467 2.523 1.94 4.14 1.242 1.6-.707 3.023-2.368 4.878-5.73 1.31-2.375 2.03-3.284 2.997-3.78.843-.443 1.801-.536 2.311-.233z"/><path d="M28.554 10.629c-.202.108-.378.318-.554.652-.29.551-.28.823.035 1.017.414.256.888.062 1.108-.45l.097-.21h2.548l-.052.21c-.044.225-.475 2.888-.475 2.942 0 .016-.79.031-1.758.031-.966 0-1.758-.015-1.758-.031s.062-.155.132-.303c.273-.574.053-.986-.51-.986-.386 0-.5.124-.931 1.002-.43.885-.501 1.149-.343 1.467.14.31 7.4 7.523 7.76 7.717.396.21.924.186 1.302-.078.334-.225 7.453-7.266 7.61-7.53.22-.373.106-.73-.86-2.74-1.24-2.57-1.222-2.547-1.538-2.718-.255-.14-.545-.148-5.898-.148-5.493 0-5.634.008-5.915.156zm7.48 2.46c.131.808.237 1.522.237 1.592 0 .132-.15.14-1.855.14h-1.854l.053-.217c.026-.117.131-.738.228-1.374.097-.645.202-1.258.229-1.382l.052-.21h2.681l.228 1.452zm4.007-.66l.765 1.6.378.792-1.776-.015-1.775-.024-.237-1.436c-.123-.792-.238-1.498-.238-1.576-.008-.117.106-.132 1.249-.132h1.256l.378.792zm-7.98 6.118c.474 1.382.852 2.524.844 2.531-.01.008-1.178-1.14-2.593-2.538l-2.575-2.554 1.731.015 1.732.023.86 2.523zm4.21-2.36c-.229.513.017.986.51.986.386 0 .606-.201.773-.73l.15-.458h3.41l-.159.18c-.377.426-4.886 4.867-4.922 4.844-.008-.016.132-.497.326-1.072.386-1.141.378-1.359-.053-1.537-.615-.24-.8-.016-1.362 1.646-.264.768-.492 1.335-.528 1.28-.044-.077-1.116-3.167-1.801-5.209-.044-.124.087-.132 1.845-.132h1.899l-.088.202z"/></g><defs><clipPath id="clip0_918_20014"><path fill="#fff" transform="translate(.5)" d="M0 0h45v45H0z"/></clipPath></defs></svg>