<svg width="48" height="51" fill="none" xmlns="http://www.w3.org/2000/svg"><path d="M36.4 28.755c-.55.187-.909.459-1.719 1.32-.387.4-1.38 1.44-2.205 2.3l-1.5 1.57-.318-.301a2.843 2.843 0 00-1.564-.724c-.26-.029-2.212-.057-4.34-.065h-3.867l-.655-.215c-.994-.322-1.762-.437-2.917-.437-1.987 0-3.586.466-5.129 1.484-.789.523-1.852 1.606-2.36 2.401l-.394.617-.493.036c-.839.064-.973.165-3.05 2.28L4 40.933v.681l4.058 4.172c2.233 2.287 4.128 4.2 4.213 4.25.197.116.43.116.662-.006.106-.058 1.036-.968 2.064-2.029 2.142-2.193 2.142-2.2 2.1-3.233l-.029-.552.536-.502c.852-.81.409-.752 6.193-.752 3.05 0 5.199-.029 5.558-.072a6.593 6.593 0 003.297-1.448c.521-.437 6.975-8.315 7.179-8.767.148-.308.169-.473.169-1.183 0-.76-.014-.86-.197-1.254a2.864 2.864 0 00-1.339-1.348c-.606-.286-1.444-.344-2.064-.136zm1.515 1.47c.458.265.697.63.732 1.11.022.273-.007.502-.077.675-.134.322-6.073 7.584-6.707 8.2-.514.502-1.17.875-1.937 1.111-.522.165-.571.165-6.024.208-3.804.029-5.565.065-5.72.122-.486.172-1.078.552-1.55.99l-.493.458-2.755-2.81-2.762-2.81.338-.538c1.353-2.136 3.593-3.304 6.341-3.304 1.078 0 1.754.107 2.593.416l.556.2 4.333.036c4.318.036 4.332.036 4.628.194a1.45 1.45 0 010 2.552c-.289.157-.345.157-3.522.193l-3.234.036-.169.2c-.24.287-.225.632.035.925l.205.237 2.937.021c3.142.022 3.692-.014 4.29-.294.98-.458 1.74-1.713 1.656-2.73-.02-.237.092-.373 2.353-2.746 1.402-1.462 2.501-2.56 2.67-2.66.388-.215.91-.215 1.283.008zm-25.376 11.21l3.156 3.212v.645l-1.508 1.52c-.831.839-1.536 1.527-1.571 1.527-.028 0-1.613-1.584-3.508-3.512l-3.452-3.513 1.564-1.591 1.564-1.584.295.042c.29.036.451.194 3.46 3.255z" fill="#33373A"/><path d="M10.273 11.524c1.19 0 2.056.216 2.597.647.548.423.822 1.018.822 1.786 0 .477-.113.904-.34 1.28-.22.376-.553.674-1 .893-.446.212-.994.318-1.644.318a5.011 5.011 0 01-1.68-.282c-.525-.196-.948-.455-1.27-.776l.412-.67c.274.282.634.513 1.08.694a3.98 3.98 0 001.446.258c.681 0 1.206-.153 1.575-.458.375-.306.563-.713.563-1.222 0-.564-.211-.991-.634-1.281-.415-.29-1.12-.435-2.115-.435h-1.75l.422-4.124h4.5v.752h-3.76l-.281 2.62h1.057zm7.513 4.924a2.985 2.985 0 01-1.704-.506c-.493-.337-.881-.818-1.163-1.445-.274-.634-.411-1.379-.411-2.232 0-.854.137-1.595.411-2.221.282-.635.67-1.12 1.163-1.457a2.985 2.985 0 011.704-.506 2.93 2.93 0 011.692.506c.501.337.893.822 1.175 1.457.282.626.423 1.367.423 2.22 0 .854-.141 1.599-.423 2.233-.282.627-.674 1.108-1.175 1.445a2.93 2.93 0 01-1.692.506zm0-.776c.478 0 .897-.133 1.257-.4.368-.266.654-.654.858-1.163.204-.509.305-1.124.305-1.845 0-.72-.101-1.335-.305-1.844-.204-.51-.49-.897-.858-1.164a2.06 2.06 0 00-1.257-.4c-.478 0-.9.134-1.269.4-.36.267-.642.655-.846 1.164-.204.509-.305 1.124-.305 1.845 0 .72.101 1.335.305 1.844.204.51.486.897.846 1.164a2.11 2.11 0 001.269.399zm7.521.776a2.985 2.985 0 01-1.703-.506c-.494-.337-.882-.818-1.164-1.445-.274-.634-.41-1.379-.41-2.232 0-.854.136-1.595.41-2.221.282-.635.67-1.12 1.164-1.457a2.985 2.985 0 011.703-.506A2.93 2.93 0 0127 8.587c.502.337.893.822 1.175 1.457.282.626.423 1.367.423 2.22 0 .854-.14 1.599-.423 2.233-.282.627-.673 1.108-1.175 1.445a2.93 2.93 0 01-1.692.506zm0-.776c.478 0 .897-.133 1.258-.4.368-.266.654-.654.857-1.163.204-.509.306-1.124.306-1.845 0-.72-.102-1.335-.306-1.844-.203-.51-.49-.897-.857-1.164-.36-.266-.78-.4-1.258-.4-.477 0-.9.134-1.269.4-.36.267-.642.655-.846 1.164-.203.509-.305 1.124-.305 1.845 0 .72.102 1.335.305 1.844.204.51.486.897.846 1.164.369.266.791.399 1.27.399zm8.905-2.056v.716h2.643v.518h-2.643v1.527h-.87V14.85H32.11v-.518h1.233v-6.18h3.079c1.057 0 1.88.239 2.467.717.596.47.893 1.14.893 2.009 0 .877-.297 1.555-.893 2.033-.587.47-1.41.705-2.467.705h-2.21zm0-4.712v3.972h2.22c.8 0 1.41-.173 1.834-.518.43-.344.646-.834.646-1.468 0-.635-.216-1.124-.646-1.47-.423-.344-1.035-.516-1.834-.516h-2.22z" fill="#22232C"/><rect x=".85" y="1.227" width="46.3" height="22.3" rx="11.15" stroke="#22232C" stroke-width=".7"/></svg>