<svg width="48" height="47" fill="none" xmlns="http://www.w3.org/2000/svg"><g clip-path="url(#clip0_819_23105)" fill="#33373A"><path d="M17.528 1.22c-.945.322-1.826 1.066-2.074 1.763-.101.276-.147.313-.35.248a6.15 6.15 0 00-.88-.055c-1.203.019-2.415.826-2.91 1.937-.312.716-.322 1.836-.019 2.635.046.11 0 .147-.165.147-.395 0-.78.183-.89.422-.147.321-.129.431.091.716l.184.238h5.131v6.453l-.413-.054a12.977 12.977 0 00-4.984.257c-.836.22-1.028.23-3.433.23H4.264l.018-3.425.028-3.415 1.817-.046c1.67-.045 1.836-.064 1.955-.22.193-.266.166-.734-.064-.936-.174-.156-.376-.175-1.872-.202-2.231-.037-2.663.092-3.076.909-.174.34-.183.56-.183 6.242v5.893l-.312.468c-.478.726-1.111 2.038-1.414 2.956-1.166 3.488-.744 7.4 1.138 10.594.78 1.322 1.194 1.615 1.698 1.202.34-.266.276-.68-.22-1.413-.808-1.212-1.358-2.525-1.689-4.03-.128-.588-.165-1.13-.156-2.415.01-1.542.028-1.725.294-2.735.532-2.047 1.533-3.782 3.047-5.297 1.625-1.634 3.562-2.68 5.875-3.176 1.075-.23 3.415-.23 4.48 0 4.177.9 7.417 3.773 8.703 7.71l.256.79-.541.551c-.294.294-.57.523-.597.505-.037-.027-.092-.202-.128-.395-.028-.202-.166-.688-.294-1.083-1.175-3.525-4.25-6.141-7.922-6.774-5.168-.882-10.171 2.34-11.548 7.426-.22.835-.248 1.074-.248 2.57-.01 1.533.01 1.717.248 2.561.79 2.846 2.616 5.132 5.14 6.444 1.57.817 2.91 1.139 4.7 1.139 2.167 0 4.067-.588 5.802-1.8l.57-.394.67.238c.366.138.688.267.715.285.138.11-1.56 1.303-2.643 1.845a11.611 11.611 0 01-8.574.689c-1-.313-2.433-1.029-3.287-1.653-.762-.55-1.138-.633-1.422-.312-.092.101-.166.321-.166.477 0 .35.377.707 1.533 1.442 4.81 3.02 11.227 2.441 15.45-1.405.303-.284.596-.514.642-.514.074 0 1.8.633 1.845.68.01.018.579 1.55 1.267 3.414.68 1.864 1.322 3.516 1.423 3.681.22.35.835.67 1.313.67.183 0 .486-.082.68-.174.513-.275 17.973-17.781 18.147-18.203.257-.643.129-1.276-.385-1.744-.276-.267-2.341-1.084-2.736-1.084-.532 0-.826.689-.468 1.093.092.091.542.312 1 .477 1.056.367 1.35.514 1.35.661 0 .165-17.469 17.598-17.634 17.598-.11 0-.468-.89-1.405-3.434-.697-1.89-1.34-3.561-1.44-3.718a1.458 1.458 0 00-.515-.45c-.193-.091-1.845-.724-3.672-1.395-2.497-.908-3.332-1.257-3.332-1.367 0-.166 17.432-17.635 17.597-17.635.175 0 .267.24 1.552 3.764 1.404 3.856 1.313 3.718 2.79 4.25 1.075.377 1.46.423 1.68.175.184-.202.202-.652.046-.872-.064-.083-.55-.322-1.074-.524-.523-.192-.964-.376-.991-.403-.028-.019-.615-1.598-1.322-3.507-1.331-3.626-1.45-3.865-2.075-4.131-.642-.275-1.239-.101-1.955.57l-.459.43v-3.598c0-3.938.01-3.883-.55-4.351a1.886 1.886 0 00-.625-.34c-.202-.055-1.707-.091-3.819-.091-3.268 0-3.47-.01-3.405-.166.312-.77.293-2.02-.046-2.68-.496-.973-1.184-1.533-2.203-1.8-.542-.137-1.212-.128-1.607.019-.082.037-.202-.092-.358-.395-.294-.596-.872-1.156-1.496-1.46-.606-.302-1.68-.385-2.277-.192zm1.965 1.57c.422.294.835 1.029.835 1.497 0 .44-.22 1.037-.881 2.387l-.588 1.22h-.89l-.652-1.358c-.358-.744-.698-1.533-.753-1.753-.21-.827.248-1.763 1.056-2.14.55-.256 1.377-.192 1.873.148zm-4.663 1.8c.293.082.348.138.403.44.065.377.68 1.864 1.01 2.47l.22.395h-3.349l-.239-.257c-.321-.331-.44-.661-.44-1.23 0-.551.174-.946.587-1.35.505-.487 1.138-.652 1.808-.468zm8.656.22c1.01.588 1.23 2.029.44 2.92-.119.146-.33.165-1.826.165-.918 0-1.68-.019-1.68-.046 0-.028.138-.33.312-.67.413-.827.771-1.708.845-2.103.045-.238.128-.358.348-.45.404-.183 1.065-.11 1.56.184zm-3.709 7.904v3.442h-1.23c-.679 0-1.294-.027-1.377-.055-.128-.046-.147-.44-.147-3.442V9.27h2.754v3.443zM32.52 9.382c.082.082.11.973.11 3.442v3.332H21.154V9.271h5.628c4.25 0 5.654.028 5.737.11zM5.953 17.91c-.294.21-.799.605-1.111.88l-.578.506v-1.763h2.23l-.541.377zm25.345 1l-1.377 1.377h-6.545l-.432-.514c-.45-.514-1.643-1.56-2.295-1.992l-.367-.248h12.393l-1.377 1.377zm-15.532 1.047c3.259.973 5.719 3.69 6.297 6.976.202 1.102.377.845-2.47 3.681-2.762 2.754-2.918 2.975-2.817 3.718.073.56.376.973.89 1.212.248.12.45.238.459.275 0 .037-.386.257-.854.487-2.084 1.01-4.406 1.184-6.582.486-2.726-.872-4.91-3.12-5.746-5.902-.33-1.111-.413-3.03-.174-4.186.596-2.947 2.763-5.508 5.517-6.5 1.303-.468 1.863-.56 3.341-.523 1.101.028 1.469.074 2.139.276zm11.355 3.13c-.78.78-1.423 1.404-1.432 1.395a12.89 12.89 0 01-.266-.66 13.928 13.928 0 00-.643-1.396l-.404-.762h4.168l-1.423 1.423z"/><path d="M12.91 21.508c-.155.165-.201.33-.201.68 0 .468-.01.477-.34.587-1.487.477-2.322 2.286-1.735 3.708.202.478.615.872 1.359 1.304l.716.422v4.011h-.22c-.12 0-.505-.146-.845-.32-.753-.377-.982-.395-1.276-.092-.257.248-.275.385-.128.716.165.376 1.22.908 2.037 1.028l.432.064v.496c0 .596.202.863.67.863.45 0 .643-.257.689-.918.027-.35.082-.551.156-.551.266 0 1.248-.588 1.56-.937.193-.201.468-.642.624-.973.23-.504.285-.715.285-1.303.01-.633-.028-.78-.312-1.34-.377-.726-.918-1.194-1.763-1.515l-.532-.193v-1.597c0-1.8-.01-1.772.652-1.322.495.33.752.349 1.055.046.524-.523-.009-1.248-1.156-1.579l-.533-.156-.036-.505c-.037-.376-.092-.541-.258-.67-.284-.23-.66-.211-.9.046zm-.201 3.883c0 1.35.027 1.304-.523.89-.358-.257-.469-.706-.303-1.248.11-.367.532-.89.725-.89.064 0 .1.413.1 1.248zm2.084 3.672c.376.285.624.918.541 1.423-.11.697-.486 1.22-1.129 1.588-.092.055-.12-.303-.12-1.643v-1.708l.212.055c.11.037.33.166.496.285zm14.715-3.543a.703.703 0 00-.184.431c0 .358 3.92 9.951 4.15 10.144.394.349 1.083.046 1.083-.468 0-.184-3.663-9.281-3.994-9.924-.21-.413-.734-.505-1.055-.183zm-2.745 2.487c-.808.248-1.469 1.019-1.616 1.891-.137.845.404 2.047 1.176 2.607.605.44.973.57 1.67.578 1.102.01 1.882-.532 2.213-1.542.413-1.23-.313-2.754-1.589-3.332-.56-.257-1.386-.349-1.854-.202zm1.432 1.524c.9.578 1.02 1.8.22 2.139-1 .413-2.267-.89-1.799-1.864.267-.569.946-.688 1.58-.275zm6.775-.633c-.91.431-1.359 1.129-1.359 2.139 0 1.496 1.193 2.735 2.717 2.818.836.055 1.313-.138 1.845-.725 1.12-1.249.597-3.278-1.064-4.131-.56-.285-1.634-.34-2.14-.101zm1.606 1.35c.422.22.753.724.808 1.22.027.376 0 .477-.211.734-.211.248-.312.294-.643.294-.523 0-.77-.1-1.129-.468-.78-.799-.496-1.918.487-1.918.23 0 .541.064.688.137z"/></g><defs><clipPath id="clip0_819_23105"><path fill="#fff" transform="translate(.5)" d="M0 0h47v47H0z"/></clipPath></defs></svg>