<svg width="16" height="16" fill="none" xmlns="http://www.w3.org/2000/svg"><path d="M.588.191a.804.804 0 00-.43.443.629.629 0 000 .541c.047.112 1.066 1.156 3.407 3.498l3.34 3.343-3.361 3.36C-.074 15.003.042 14.874.11 15.248a.884.884 0 00.657.657c.374.069.245.185 3.872-3.433L8 9.112l3.364 3.36c3.622 3.618 3.494 3.502 3.867 3.433a.884.884 0 00.658-.657c.069-.374.185-.245-3.433-3.872l-3.36-3.36 3.36-3.365c3.618-3.622 3.502-3.493 3.433-3.867a.884.884 0 00-.658-.657c-.373-.069-.245-.185-3.871 3.433L8 6.92 4.657 3.581C2.315 1.24 1.27.221 1.159.174a.625.625 0 00-.571.017z" fill="#000"/></svg>