<svg width="27" height="27" fill="none" xmlns="http://www.w3.org/2000/svg"><path d="M13.5 24.356a2.91 2.91 0 01-.967-.146C8.235 22.736 1.405 17.505 1.405 9.776c0-3.937 3.184-7.132 7.099-7.132 1.901 0 3.679.742 4.995 2.07a6.99 6.99 0 014.995-2.07c3.915 0 7.099 3.206 7.099 7.132 0 7.74-6.829 12.96-11.127 14.434a2.911 2.911 0 01-.967.146zM8.505 4.331c-2.981 0-5.411 2.441-5.411 5.445 0 7.684 7.391 11.959 9.99 12.848.202.067.641.067.844 0 2.587-.89 9.99-5.153 9.99-12.848 0-3.004-2.43-5.445-5.412-5.445-1.71 0-3.296.799-4.32 2.183-.315.427-1.035.427-1.35 0C11.79 5.119 10.215 4.33 8.505 4.33z" fill="#33373A"/></svg>