<svg width="149" height="49" fill="none" xmlns="http://www.w3.org/2000/svg"><path d="M36.694 28.751L34.59 13.913l-.094-.094-5.28 14.465h-.912l-.28-.28-5.538-14.091-.07.07-1.823 14.768h-.795l1.52-12.338c.093-.716.155-1.394.186-2.033.047-.639.07-1.098.07-1.378v-.444l.164-.164h1.519l5.654 14.3 5.281-14.3h1.52l2.313 16.357h-1.332zm6.744 0V12.394h1.285v16.357h-1.285zm7.643 0v-9.814a78.89 78.89 0 00-.07-3.459 41.564 41.564 0 00-.14-2.243l-.07-.677.163-.164h.538l11.894 14.137V12.394h.818v16.357h-.468L51.852 14.637v14.114h-.77zm19.487 0V12.394h1.285v16.357h-1.285zm23.627 0l-2.103-14.838-.094-.094-5.28 14.465h-.912l-.28-.28-5.538-14.091-.07.07-1.823 14.768H77.3l1.518-12.338c.094-.716.156-1.394.187-2.033.047-.639.07-1.098.07-1.378v-.444l.164-.164h1.519l5.655 14.3 5.28-14.3h1.52l2.313 16.357h-1.332zm7.866-5.024l-2.174 5.024h-.864l6.963-15.936-.14-.257v-.164h1.425l7.198 16.357h-1.356l-2.196-5.024h-8.856zm5.654-7.314c-.529-1.215-.958-2.118-1.285-2.71l-4.042 9.3h8.202l-2.875-6.59zm11.182 12.338V12.394h1.285V28.05h4.533c.826 0 1.558-.023 2.197-.07.639-.047 1.075-.101 1.308-.164l.351-.07.163.14v.865h-9.837zM44.001 46.286a3.516 3.516 0 01-1.733-.43 3.16 3.16 0 01-1.21-1.19 3.317 3.317 0 01-.44-1.697c0-.624.147-1.19.44-1.695a3.16 3.16 0 011.21-1.19A3.515 3.515 0 0144 39.653c.637 0 1.215.143 1.733.43.519.288.925.685 1.218 1.19.294.506.44 1.072.44 1.696 0 .625-.146 1.19-.44 1.697-.293.506-.7.902-1.218 1.19a3.515 3.515 0 01-1.733.43zm0-.29c.575 0 1.096-.131 1.565-.394a2.888 2.888 0 001.105-1.086 3.02 3.02 0 00.403-1.547 3.02 3.02 0 00-.403-1.546 2.887 2.887 0 00-1.105-1.086A3.147 3.147 0 0044 39.943c-.575 0-1.096.131-1.565.394a2.906 2.906 0 00-1.096 1.086 3.02 3.02 0 00-.403 1.546c0 .569.134 1.084.403 1.547a2.91 2.91 0 001.096 1.087c.469.262.99.393 1.565.393zm7.632-4.573c.45 0 .85.103 1.199.31.35.2.621.484.815.852.2.363.3.778.3 1.247 0 .474-.1.9-.3 1.274-.2.368-.478.659-.834.871-.356.206-.762.31-1.218.31-.525 0-.974-.132-1.35-.394-.368-.269-.649-.64-.842-1.115-.188-.475-.282-1.024-.282-1.65 0-.749.088-1.364.263-1.845.175-.481.437-.856.787-1.125.35-.274.803-.48 1.358-.618l2.127-.534.057.3-2.043.497c-.53.13-.959.318-1.284.562-.325.243-.568.58-.73 1.012-.157.43-.235.99-.235 1.677v.019a2.15 2.15 0 01.797-1.2c.393-.3.865-.45 1.415-.45zm-.029 4.582c.394 0 .744-.09 1.05-.271a1.9 1.9 0 00.721-.769 2.39 2.39 0 00.263-1.133 2.26 2.26 0 00-.263-1.106 1.778 1.778 0 00-.721-.75 2.02 2.02 0 00-1.05-.271c-.393 0-.746.09-1.058.271a1.837 1.837 0 00-.731.75 2.328 2.328 0 00-.253 1.106c0 .424.087.802.262 1.133.175.325.416.581.722.769.312.18.665.271 1.059.271zm6.759-4.657c.444 0 .846.107 1.209.32.362.205.646.499.852.88.213.375.319.8.319 1.274 0 .475-.106.9-.319 1.274-.206.37-.49.66-.852.872a2.4 2.4 0 01-1.209.31c-.468 0-.89-.12-1.265-.357a2.169 2.169 0 01-.825-.974v3.12h-.309v-6.681h.3v1.33c.181-.424.456-.758.825-1.002.375-.244.8-.365 1.274-.365zm-.01 4.648c.394 0 .747-.09 1.06-.272a2.01 2.01 0 00.749-.768c.181-.331.272-.709.272-1.134 0-.425-.09-.803-.272-1.134a1.928 1.928 0 00-.75-.768 2.017 2.017 0 00-1.058-.281c-.394 0-.75.094-1.069.281a1.948 1.948 0 00-.74.768 2.324 2.324 0 00-.272 1.134c0 .425.091.803.272 1.134.181.325.428.58.74.768.319.182.675.272 1.069.272zm5.938-4.648c.58 0 1.024.15 1.33.45.313.3.469.734.469 1.303v3.148h-.3v-.974a1.74 1.74 0 01-.703.74c-.306.175-.674.262-1.105.262-.544 0-.972-.125-1.284-.375-.306-.25-.46-.58-.46-.993 0-.393.141-.712.422-.956.282-.25.731-.374 1.35-.374h1.77V43.1c0-.481-.127-.847-.383-1.097-.25-.25-.622-.374-1.116-.374a2.6 2.6 0 00-.965.178 2.39 2.39 0 00-.768.477l-.169-.224c.238-.225.522-.4.853-.525a3.02 3.02 0 011.059-.188zM64 46.016c.874 0 1.467-.39 1.78-1.172v-1.011h-1.77c-.506 0-.878.096-1.115.29-.231.187-.347.444-.347.768 0 .35.128.625.384.825.263.2.619.3 1.068.3zm6.273-2.315c.382.07.675.206.881.413.206.2.31.453.31.759 0 .28-.094.53-.282.75a1.786 1.786 0 01-.73.496 2.91 2.91 0 01-.975.178 3.29 3.29 0 01-1.05-.169 2.384 2.384 0 01-.861-.506l.15-.215c.218.206.484.362.796.468.312.1.634.15.965.15.462-.006.856-.115 1.18-.328.326-.218.488-.503.488-.852 0-.313-.144-.556-.431-.731-.281-.175-.665-.263-1.153-.263h-.74v-.262h.74c.419 0 .762-.084 1.031-.253.275-.169.412-.394.412-.675 0-.337-.15-.596-.45-.777-.293-.182-.662-.272-1.105-.272a3.04 3.04 0 00-1.546.43l-.113-.252c.269-.15.547-.263.834-.337.294-.082.578-.122.853-.122.531 0 .971.115 1.321.346.35.232.525.547.525.947 0 .262-.097.49-.29.684-.188.187-.44.318-.76.393zm6.03-2.314h.31v4.366l3.653-4.366h.272v4.863h-.31v-4.366l-3.663 4.366h-.262v-4.863zM84.84 43.7c.38.07.674.206.88.413.207.2.31.453.31.759 0 .28-.094.53-.281.75a1.786 1.786 0 01-.731.496 2.91 2.91 0 01-.975.178 3.29 3.29 0 01-1.05-.169 2.383 2.383 0 01-.861-.506l.15-.215c.218.206.484.362.796.468.313.1.634.15.965.15.463-.006.856-.115 1.181-.328.325-.218.487-.503.487-.852 0-.313-.144-.556-.43-.731-.282-.175-.666-.263-1.153-.263h-.74v-.262h.74c.418 0 .762-.084 1.03-.253.275-.169.413-.394.413-.675 0-.337-.15-.596-.45-.777-.294-.182-.662-.272-1.106-.272-.537 0-1.052.144-1.546.43l-.112-.252c.268-.15.546-.263.834-.337.293-.082.578-.122.852-.122.531 0 .972.115 1.322.346.35.232.524.547.524.947 0 .262-.097.49-.29.684-.188.187-.44.318-.76.393zm8.447-4.01c.818 0 1.455.194 1.911.581.462.381.694.912.694 1.593 0 .687-.232 1.224-.694 1.611-.456.382-1.093.572-1.911.572h-1.959v2.202h-.318V39.69h2.277zm.018 4.067c.731 0 1.294-.163 1.687-.488.394-.33.59-.8.59-1.405 0-.6-.196-1.062-.59-1.387-.393-.331-.956-.496-1.687-.496H91.33v3.776h1.977zm4.326-2.371h.309v4.863h-.31v-4.863zm.15-1.274a.312.312 0 01-.216-.085.296.296 0 01-.094-.215.307.307 0 01.525-.215.267.267 0 01.094.206.296.296 0 01-.094.215.297.297 0 01-.216.094zm4.908 1.236c.606 0 1.084.178 1.434.535.35.35.525.852.525 1.508v2.858h-.31v-2.84c0-.574-.146-1.011-.44-1.31-.287-.307-.7-.46-1.237-.46-.606 0-1.084.181-1.433.543-.35.356-.525.837-.525 1.443v2.624h-.309v-4.863h.299v1.19c.157-.381.407-.68.75-.9.35-.218.765-.328 1.246-.328zm6.652 4.592c-.112.106-.256.19-.431.253a1.765 1.765 0 01-.543.084c-.394 0-.7-.11-.918-.328-.213-.225-.319-.53-.319-.918v-3.373h-.918v-.272h.918v-1.068h.309v1.068h1.602v.272h-1.602v3.326c0 .331.081.584.244.759.162.175.4.262.712.262.312 0 .575-.096.787-.29l.159.225zm5.576-2.08h-4.263c.006.412.103.78.29 1.105.188.325.444.578.769.76.331.18.699.271 1.105.271.331 0 .637-.06.918-.178.282-.125.513-.306.694-.543l.197.206a2.203 2.203 0 01-.797.59c-.312.137-.65.206-1.012.206a2.59 2.59 0 01-1.274-.31 2.317 2.317 0 01-.872-.88 2.542 2.542 0 01-.318-1.274c0-.475.097-.9.29-1.275.2-.374.475-.665.825-.87.35-.213.74-.32 1.171-.32a2.2 2.2 0 011.153.31c.349.206.624.493.824.862.2.368.3.787.3 1.255v.085zm-2.277-2.23c-.362 0-.69.084-.984.253a1.873 1.873 0 00-.702.712c-.175.3-.272.637-.291 1.012h3.964a2.202 2.202 0 00-.31-1.012 1.88 1.88 0 00-1.677-.965zm4.477.927c.144-.387.375-.684.694-.89.325-.212.724-.319 1.199-.319v.31h-.084c-.562 0-1.003.178-1.321.534-.319.356-.478.846-.478 1.47v2.587h-.31v-4.863h.3v1.171zm7.59 1.303h-4.263c.006.412.103.78.29 1.105.188.325.444.578.769.76.331.18.699.271 1.105.271.331 0 .638-.06.919-.178.281-.125.512-.306.693-.543l.197.206a2.195 2.195 0 01-.797.59 2.482 2.482 0 01-1.012.206 2.6 2.6 0 01-1.274-.31 2.307 2.307 0 01-.871-.88 2.533 2.533 0 01-.319-1.274c0-.475.097-.9.291-1.275.199-.374.474-.665.824-.87.35-.213.74-.32 1.171-.32a2.2 2.2 0 011.153.31c.35.206.625.493.824.862.2.368.3.787.3 1.255v.085zm-2.277-2.23a1.88 1.88 0 00-1.686.965c-.175.3-.272.637-.291 1.012h3.964a2.213 2.213 0 00-.309-1.012 1.883 1.883 0 00-1.678-.965zm5.349 4.647c-.394 0-.765-.06-1.115-.178-.344-.119-.612-.275-.806-.468l.15-.244c.2.175.456.322.768.44.319.12.656.178 1.012.178.525 0 .912-.087 1.162-.262a.875.875 0 00.375-.75c0-.224-.069-.403-.206-.534a1.189 1.189 0 00-.497-.29 7.201 7.201 0 00-.806-.188 8.622 8.622 0 01-.946-.224 1.444 1.444 0 01-.59-.385c-.163-.175-.244-.418-.244-.73 0-.369.15-.675.45-.919.306-.25.749-.374 1.33-.374.3 0 .6.046.9.14.3.088.543.206.731.356l-.16.244a1.992 1.992 0 00-.684-.338 2.615 2.615 0 00-.796-.121c-.481 0-.843.093-1.087.28a.854.854 0 00-.365.722c0 .238.068.425.206.562.137.138.306.24.506.31.206.062.484.128.834.196.375.07.677.144.909.225.231.075.424.197.581.366.162.168.243.403.243.702 0 .394-.159.706-.478.937-.318.232-.777.347-1.377.347zm5.9-.337c-.112.106-.256.19-.431.253a1.76 1.76 0 01-.543.084c-.394 0-.7-.11-.918-.328-.213-.225-.319-.53-.319-.918v-3.373h-.918v-.272h.918v-1.068h.309v1.068h1.603v.272h-1.603v3.326c0 .331.082.584.244.759.162.175.4.262.712.262.312 0 .575-.096.787-.29l.159.225zM140 43.905a.5.5 0 000 1v-1zm-105 1a.5.5 0 000-1v1zM3 1.25h143v-1H3v1zm144.5 1.5v39.654h1V2.75h-1zM146 43.905h-6v1h6v-1zM.5 2.75v39.654h1V2.75h-1zM3 44.905h32v-1H3v1zm-2.5-2.5a2.5 2.5 0 002.5 2.5v-1a1.5 1.5 0 01-1.5-1.5h-1zm147 0a1.5 1.5 0 01-1.5 1.5v1a2.5 2.5 0 002.5-2.5h-1zM146 1.25a1.5 1.5 0 011.5 1.5h1a2.5 2.5 0 00-2.5-2.5v1zM3 .25a2.5 2.5 0 00-2.5 2.5h1A1.5 1.5 0 013 1.25v-1z" fill="#22232C"/></svg>